<svg id="Layer_1" data-name="Layer 1" xmlns="http://www.w3.org/2000/svg" viewBox="0 0 193.17 209.06"><defs><style>.cls-1{fill:none;stroke:#000;stroke-miterlimit:10;stroke-width:18.08px}</style></defs><path class="cls-1" d="M17 96.54a25.31 25.31 0 0 1 35.8-35.8M15.71 95.26l107.41 107.41M51.51 59.46l89.51 89.5M176.72 112.73a25.32 25.32 0 0 1-35.81 35.8M70.69 7.03l106.13 106.13M176.18 95.9a25.31 25.31 0 1 0-35.8-35.8M177.46 94.62 70.05 202.03M141.66 58.82l-89.51 89.5M16.46 112.09a25.31 25.31 0 1 0 35.8 35.8M122.48 6.39 16.35 112.52"/></svg>