<svg id="Layer_1" data-name="Layer 1" xmlns="http://www.w3.org/2000/svg" viewBox="0 0 522.12 231.22"><defs><style>.cls-1{fill:none;stroke-width:20px;stroke:#000;stroke-miterlimit:10}</style></defs><path class="cls-1" d="M18.79 106.77a28 28 0 0 1 39.6-39.59M17.38 105.36l118.79 118.79M56.97 65.76l99 99M195.45 124.68a28 28 0 0 1-39.6 39.6M78.19 7.78l117.38 117.38M194.86 106.07a28 28 0 0 0-39.6-39.6M196.27 104.65 77.48 223.45M156.68 65.05l-99 99M18.2 124a28 28 0 0 0 39.6 39.6M135.46 7.07 18.08 124.45"/><text transform="translate(262.39 165.06)" style="font-size:40px;font-family:Helvetica-Light,Helvetica;font-weight:300;letter-spacing:.4em">LEASH</text><text transform="translate(221.16 120.9)" style="font-size:80px;stroke-width:2px;font-family:Helvetica-Bold,Helvetica;font-weight:700;letter-spacing:.15em;stroke:#000;stroke-miterlimit:10">TIGHT</text></svg>